HIERARCHY
ROOT joint_Root
{
	OFFSET 0.0 0.0 0.0
	CHANNELS 6 Xposition Yposition Zposition Zrotation Xrotation Yrotation 
	JOINT Hips
	{
		OFFSET -17.1583 93.1646 452.98
		CHANNELS 6 Xposition Yposition Zposition Zrotation Xrotation Yrotation 
		JOINT Spine
		{
			OFFSET 15.7357 0.0 0.0
			CHANNELS 6 Xposition Yposition Zposition Zrotation Xrotation Yrotation 
			JOINT Chest
			{
				OFFSET 8.98455 -0.406207 0.0
				CHANNELS 6 Xposition Yposition Zposition Zrotation Xrotation Yrotation 
				JOINT Neck
				{
					OFFSET 16.3773 0.0 0.0
					CHANNELS 6 Xposition Yposition Zposition Zrotation Xrotation Yrotation 
					JOINT Head
					{
						OFFSET 6.45672 0.0 0.0
						CHANNELS 6 Xposition Yposition Zposition Zrotation Xrotation Yrotation 
						End Site
						{
							OFFSET 0.0 0.0 0.0
						}
					}
				}
				JOINT Shoulder_L
				{
					OFFSET 12.9942 -0.242716 4.98039
					CHANNELS 6 Xposition Yposition Zposition Zrotation Xrotation Yrotation 
					JOINT UpperArm_L
					{
						OFFSET 5.34809 0.0 0.0
						CHANNELS 6 Xposition Yposition Zposition Zrotation Xrotation Yrotation 
						JOINT LowerArm_L
						{
							OFFSET 24.3286 1.87007e-05 0.0
							CHANNELS 6 Xposition Yposition Zposition Zrotation Xrotation Yrotation 
							JOINT Hand_L
							{
								OFFSET 22.2916 0.0 0.0
								CHANNELS 6 Xposition Yposition Zposition Zrotation Xrotation Yrotation 
								End Site
								{
									OFFSET 0.0 0.0 0.0
								}
							}
						}
					}
				}
				JOINT Shoulder_R
				{
					OFFSET 12.9945 -0.242716 -4.98039
					CHANNELS 6 Xposition Yposition Zposition Zrotation Xrotation Yrotation 
					JOINT UpperArm_R
					{
						OFFSET -5.34813 0.0 0.0
						CHANNELS 6 Xposition Yposition Zposition Zrotation Xrotation Yrotation 
						JOINT LowerArm_R
						{
							OFFSET -24.3289 0.000322201 0.0
							CHANNELS 6 Xposition Yposition Zposition Zrotation Xrotation Yrotation 
							JOINT Hand_R
							{
								OFFSET -22.2915 -0.000108084 0.0
								CHANNELS 6 Xposition Yposition Zposition Zrotation Xrotation Yrotation 
								End Site
								{
									OFFSET 0.0 0.0 0.0
								}
							}
						}
					}
				}
			}
		}
		JOINT UpperLeg_L
		{
			OFFSET -2.19248 -6.46944 0.0
			CHANNELS 6 Xposition Yposition Zposition Zrotation Xrotation Yrotation 
			JOINT LowerLeg_L
			{
				OFFSET 39.0811 0.0 -1.23785e-05
				CHANNELS 6 Xposition Yposition Zposition Zrotation Xrotation Yrotation 
				JOINT Foot_L
				{
					OFFSET 40.9854 0.0 -1.26872e-05
					CHANNELS 6 Xposition Yposition Zposition Zrotation Xrotation Yrotation 
					JOINT Toes_L
					{
						OFFSET 11.7543 0.0 0.0
						CHANNELS 6 Xposition Yposition Zposition Zrotation Xrotation Yrotation 
						End Site
						{
							OFFSET 0.0 0.0 0.0
						}
					}
				}
			}
		}
		JOINT UpperLeg_R
		{
			OFFSET -2.19251 6.46944 0.0
			CHANNELS 6 Xposition Yposition Zposition Zrotation Xrotation Yrotation 
			JOINT LowerLeg_R
			{
				OFFSET -39.0811 -0.00228153 -0.0401928
				CHANNELS 6 Xposition Yposition Zposition Zrotation Xrotation Yrotation 
				JOINT Foot_R
				{
					OFFSET -40.9854 0.0 0.0
					CHANNELS 6 Xposition Yposition Zposition Zrotation Xrotation Yrotation 
					JOINT Toes_R
					{
						OFFSET -11.7543 0.0 0.0
						CHANNELS 6 Xposition Yposition Zposition Zrotation Xrotation Yrotation 
						End Site
						{
							OFFSET 0.0 0.0 0.0
						}
					}
				}
			}
		}
	}
}
MOTION
Frames:	9
Frame Time:	0.0333333
0.000000 0.000000 0.000000 0.000000 0.000000 -0.000000 3.189740 93.316200 -534.189000 86.250000 0.621538 -2.081580 15.735700 0.000005 -0.000001 45.061300 85.564700 -41.907900 8.984550 -0.406207 -0.000000 -1.301140 -6.513680 6.236150 16.377300 -0.000001 -0.000001 1.123180 5.190420 -2.261700 6.456720 -0.000001 -0.000000 7.534510 9.025510 -5.412030 12.994200 -0.242716 4.980390 -91.309300 4.184310 -72.607300 5.348090 -0.000007 -0.000001 -58.648000 -11.603400 -28.308700 24.328600 0.000019 0.000005 32.041400 12.622300 -70.753100 22.291600 -0.000001 0.000005 11.189800 4.866490 10.039900 12.994500 -0.242716 -4.980390 91.015100 -2.859310 -70.445200 -5.348130 -0.000001 -0.000004 -46.206000 -15.447100 15.281900 -24.328900 0.000322 -0.000009 0.926300 8.388740 -6.331080 -22.291500 -0.000108 -0.000004 3.929640 5.016110 6.974790 -2.192480 -6.469440 -0.000000 -175.271000 -4.204050 7.772720 39.081100 -0.000007 -0.000012 0.005173 -0.021327 13.635300 40.985400 -0.000006 -0.000013 -0.279206 19.748700 -64.314600 11.754300 -0.000000 0.000003 -0.004558 -0.057127 -18.900900 -2.192510 6.469440 -0.000001 -178.650000 -2.116020 152.860000 -39.081100 -0.002282 -0.040193 0.039831 -0.095075 21.008200 -40.985400 0.000008 0.000006 -9.747080 -4.925940 -63.960700 -11.754300 -0.000006 -0.000006 0.000838 0.152109 -10.404400
0.000000 0.000000 0.000000 0.000000 0.000000 -0.000000 2.855380 93.062700 -531.823000 86.324400 1.242180 -2.548060 15.735700 0.000005 -0.000001 43.259200 85.606800 -40.131700 8.984550 -0.406207 -0.000000 -1.558020 -6.651550 6.168410 16.377300 -0.000001 -0.000001 0.675600 4.992230 -2.024080 6.456720 -0.000001 -0.000000 7.058370 8.883790 -5.237150 12.994200 -0.242716 4.980390 -91.368500 4.358860 -72.551300 5.348090 -0.000007 -0.000001 -59.622800 -11.126300 -28.164400 24.328600 0.000019 0.000005 32.912400 12.226000 -71.882300 22.291600 -0.000001 0.000005 11.164900 4.853200 10.298700 12.994500 -0.242716 -4.980390 90.983200 -2.778310 -70.503200 -5.348130 -0.000001 -0.000004 -45.649500 -15.735000 15.961200 -24.328900 0.000322 -0.000009 1.024740 8.660580 -6.780990 -22.291500 -0.000108 -0.000004 4.789180 5.025160 6.780240 -2.192480 -6.469440 -0.000000 -174.932000 -4.109590 8.460420 39.081100 -0.000007 -0.000012 0.003809 -0.015329 13.956500 40.985400 -0.000006 -0.000013 -0.071046 20.086100 -63.728100 11.754300 -0.000000 0.000003 -0.010343 -0.106196 -20.904000 -2.192510 6.469440 -0.000001 -178.799000 -2.248340 152.482000 -39.081100 -0.002282 -0.040193 0.033886 -0.088344 19.083400 -40.985400 0.000008 0.000006 -9.231590 -3.091400 -63.754400 -11.754300 -0.000006 -0.000006 0.000477 0.159205 -10.116400
0.000000 0.000000 0.000000 0.000000 0.000000 -0.000000 2.448310 92.622700 -529.150000 86.443100 2.125180 -3.041690 15.735700 0.000005 -0.000001 40.239000 85.640200 -37.146300 8.984550 -0.406207 -0.000000 -1.943690 -6.916280 6.072760 16.377300 -0.000001 -0.000001 0.163619 4.750630 -1.805270 6.456720 -0.000001 -0.000000 6.697040 8.686930 -5.062500 12.994200 -0.242716 4.980390 -91.439700 4.609400 -72.633700 5.348090 -0.000007 -0.000001 -60.681000 -9.840600 -27.017700 24.328600 0.000019 0.000005 32.787600 11.844600 -72.325500 22.291600 -0.000001 0.000005 11.637200 4.858980 10.186700 12.994500 -0.242716 -4.980390 90.895800 -2.531070 -70.501800 -5.348130 -0.000001 -0.000004 -45.489900 -15.876000 16.631500 -24.328900 0.000322 -0.000009 1.145530 8.397560 -7.804020 -22.291500 -0.000108 -0.000004 5.995660 5.049630 6.247530 -2.192480 -6.469440 -0.000000 -174.532000 -3.784580 9.373970 39.081100 -0.000007 -0.000012 0.002089 -0.008291 14.147200 40.985400 -0.000006 -0.000013 0.295044 20.474100 -63.352100 11.754300 -0.000000 0.000003 -0.019593 -0.165038 -23.318900 -2.192510 6.469440 -0.000001 -178.823000 -2.099900 151.707000 -39.081100 -0.002282 -0.040193 0.031860 -0.081824 19.226900 -40.985400 0.000008 0.000006 -8.956410 -2.458170 -64.081300 -11.754300 -0.000006 -0.000006 0.000510 0.158599 -10.141000
0.000000 0.000000 0.000000 0.000000 0.000000 -0.000000 1.980110 92.037800 -526.131000 86.604400 3.087200 -3.517830 15.735700 0.000005 -0.000001 37.091300 85.772500 -33.975200 8.984550 -0.406207 -0.000000 -2.475690 -7.020310 6.086430 16.377300 -0.000001 -0.000001 -0.418860 4.236630 -1.827140 6.456720 -0.000001 -0.000000 6.357060 8.348570 -4.912330 12.994200 -0.242716 4.980390 -91.582800 5.152990 -72.899500 5.348090 -0.000007 -0.000001 -62.015900 -7.720200 -24.938400 24.328600 0.000019 0.000005 32.169800 11.832700 -71.943700 22.291600 -0.000001 0.000005 12.458000 4.864140 10.086000 12.994500 -0.242716 -4.980390 90.798800 -2.225950 -70.253200 -5.348130 -0.000001 -0.000004 -45.726400 -15.862700 17.151800 -24.328900 0.000322 -0.000009 1.131130 7.181820 -8.984980 -22.291500 -0.000108 -0.000004 7.849560 5.100540 5.109570 -2.192480 -6.469440 -0.000000 -173.944000 -3.819450 10.469800 39.081100 -0.000007 -0.000012 0.000301 -0.001172 14.406000 40.985400 -0.000006 -0.000013 0.757424 21.276600 -62.880500 11.754300 -0.000000 0.000003 -0.033855 -0.234633 -26.199300 -2.192510 6.469440 -0.000001 -178.547000 -1.337430 150.984000 -39.081100 -0.002282 -0.040193 0.033495 -0.080284 20.598500 -40.985400 0.000008 0.000006 -9.386860 -2.149080 -64.713200 -11.754300 -0.000006 -0.000006 0.001065 0.147242 -10.602000
0.000000 0.000000 0.000000 0.000000 0.000000 -0.000000 1.457730 91.337300 -522.741000 86.758800 4.050970 -3.867220 15.735700 0.000005 -0.000001 33.106000 85.718100 -30.075200 8.984550 -0.406207 -0.000000 -2.894680 -7.452430 5.880480 16.377300 -0.000001 -0.000001 -1.066890 4.233760 -1.470120 6.456720 -0.000001 -0.000000 5.815830 7.986930 -4.985720 12.994200 -0.242716 4.980390 -91.701500 5.480930 -72.724000 5.348090 -0.000007 -0.000001 -63.460400 -5.244960 -22.095600 24.328600 0.000019 0.000005 30.499700 12.155600 -70.328400 22.291600 -0.000001 0.000005 12.843100 4.880830 9.757800 12.994500 -0.242716 -4.980390 90.538100 -1.529060 -70.608800 -5.348130 -0.000001 -0.000004 -46.862100 -15.617400 17.462900 -24.328900 0.000322 -0.000009 0.953470 5.369960 -10.096300 -22.291500 -0.000108 -0.000004 10.490100 5.155720 3.813480 -2.192480 -6.469440 -0.000000 -173.257000 -3.777620 11.548400 39.081100 -0.000007 -0.000012 -0.000707 0.002589 15.262800 40.985400 -0.000006 -0.000013 1.193180 22.016700 -62.147000 11.754300 -0.000000 0.000003 -0.054441 -0.313272 -29.495200 -2.192510 6.469440 -0.000001 -177.790000 0.107846 150.671000 -39.081100 -0.002282 -0.040193 0.034333 -0.074253 22.671000 -40.985400 0.000008 0.000006 -9.594140 -2.068400 -66.031600 -11.754300 -0.000006 -0.000006 0.001262 0.142705 -10.786100
0.000000 0.000000 0.000000 0.000000 0.000000 -0.000000 0.800246 90.630600 -519.060000 86.359100 4.566090 -4.642420 15.735700 0.000005 -0.000001 29.698700 86.044100 -26.408900 8.984550 -0.406207 -0.000000 -3.644730 -7.195690 6.359500 16.377300 -0.000001 -0.000001 -1.886620 3.855120 -1.520590 6.456720 -0.000001 -0.000000 5.392960 7.499420 -5.227360 12.994200 -0.242716 4.980390 -91.987200 6.471670 -72.889400 5.348090 -0.000007 -0.000001 -65.202800 -2.285270 -18.645100 24.328600 0.000019 0.000005 27.001400 12.690600 -66.674000 22.291600 -0.000001 0.000005 12.536800 4.914900 9.077530 12.994500 -0.242716 -4.980390 90.240000 -0.681455 -70.596200 -5.348130 -0.000001 -0.000004 -48.061300 -15.514500 17.102900 -24.328900 0.000322 -0.000009 0.708505 3.803320 -10.575700 -22.291500 -0.000108 -0.000004 12.357400 5.199780 2.728100 -2.192480 -6.469440 -0.000000 -172.020000 -3.875770 12.066600 39.081100 -0.000007 -0.000012 0.001363 -0.004598 16.510700 40.985400 -0.000006 -0.000013 1.083430 22.616700 -60.608700 11.754300 -0.000000 0.000003 -0.087560 -0.412596 -33.740900 -2.192510 6.469440 -0.000001 -176.295000 0.677640 148.822000 -39.081100 -0.002282 -0.040193 0.034399 -0.060161 27.330300 -40.985400 0.000008 0.000006 -7.260510 -2.960240 -64.304600 -11.754300 -0.000006 -0.000006 0.001587 0.134309 -11.126700
0.000000 0.000000 0.000000 0.000000 0.000000 -0.000000 0.117290 89.845500 -514.941000 86.019700 5.079750 -5.055850 15.735700 0.000005 -0.000001 25.473400 86.301100 -21.994300 8.984550 -0.406207 -0.000000 -4.377500 -7.041460 6.700090 16.377300 -0.000001 -0.000001 -2.331530 3.660860 -1.631730 6.456720 -0.000001 -0.000000 5.057850 7.112450 -5.239830 12.994200 -0.242716 4.980390 -92.244300 7.277810 -72.809700 5.348090 -0.000007 -0.000001 -67.284100 1.012440 -14.938900 24.328600 0.000019 0.000005 22.395100 13.756400 -60.004300 22.291600 -0.000001 0.000005 11.490400 4.968300 7.983440 12.994500 -0.242716 -4.980390 89.876900 0.352390 -70.744500 -5.348130 -0.000001 -0.000004 -49.777300 -14.824000 15.985800 -24.328900 0.000322 -0.000009 0.424955 2.452910 -9.848630 -22.291500 -0.000108 -0.000004 13.106300 5.221930 2.163500 -2.192480 -6.469440 -0.000000 -171.227000 -2.833160 12.495200 39.081100 -0.000007 -0.000012 0.005518 -0.016411 18.586300 40.985400 -0.000006 -0.000013 1.364590 21.824200 -57.843800 11.754300 -0.000000 0.000003 -0.152563 -0.559787 -40.267900 -2.192510 6.469440 -0.000001 -175.240000 0.319627 147.129000 -39.081100 -0.002282 -0.040193 0.038247 -0.051418 34.208100 -40.985400 0.000008 0.000006 -5.403730 -3.926160 -66.583500 -11.754300 -0.000006 -0.000006 0.000961 0.149519 -10.509600
0.000000 0.000000 0.000000 0.000000 0.000000 -0.000000 -0.522074 89.017000 -510.647000 85.557400 5.396820 -4.900650 15.735700 0.000005 -0.000001 23.625000 86.424400 -19.958100 8.984550 -0.406207 -0.000000 -4.684900 -6.943690 7.061830 16.377300 -0.000001 -0.000001 -2.755890 3.615270 -1.648910 6.456720 -0.000001 -0.000000 4.866750 6.853720 -5.164400 12.994200 -0.242716 4.980390 -92.510000 8.140450 -72.798700 5.348090 -0.000007 -0.000001 -69.499300 3.618800 -11.254200 24.328600 0.000019 0.000005 17.294500 15.038800 -50.189100 22.291600 -0.000001 0.000005 8.280600 5.038180 6.486820 12.994500 -0.242716 -4.980390 89.473300 1.519780 -70.882300 -5.348130 -0.000001 -0.000004 -52.219900 -13.184400 13.225200 -24.328900 0.000322 -0.000009 0.121470 0.941725 -7.390720 -22.291500 -0.000108 -0.000004 12.342600 5.217500 2.278410 -2.192480 -6.469440 -0.000000 -170.759000 -1.009580 12.162000 39.081100 -0.000007 -0.000012 0.013211 -0.031487 22.760700 40.985400 -0.000006 -0.000013 0.714327 20.494500 -53.608200 11.754300 -0.000000 0.000003 -0.236317 -0.702288 -46.973500 -2.192510 6.469440 -0.000001 -174.110000 -0.037695 146.780000 -39.081100 -0.002282 -0.040193 0.040892 -0.044443 40.243100 -40.985400 0.000008 0.000006 -4.809500 -4.604790 -70.221800 -11.754300 -0.000006 -0.000006 -0.001627 0.191611 -8.799920
0.000000 0.000000 0.000000 0.000000 0.000000 -0.000000 -1.214620 88.300100 -506.147000 84.784700 6.529490 -3.777260 15.735700 0.000005 -0.000001 26.200300 86.137900 -22.244700 8.984550 -0.406207 -0.000000 -4.106570 -7.334880 7.660650 16.377300 -0.000001 -0.000001 -3.069660 3.423770 -1.891940 6.456720 -0.000001 -0.000000 4.527420 6.594130 -5.090030 12.994200 -0.242716 4.980390 -92.935400 9.704350 -73.079600 5.348090 -0.000007 -0.000001 -70.804600 4.892580 -8.697430 24.328600 0.000019 0.000005 14.074700 19.138100 -37.418900 22.291600 -0.000001 0.000005 1.349510 5.121180 4.564220 12.994500 -0.242716 -4.980390 89.023300 2.841070 -71.018600 -5.348130 -0.000001 -0.000004 -55.165600 -11.293900 9.224160 -24.328900 0.000322 -0.000009 0.038867 0.505337 -4.519370 -22.291500 -0.000108 -0.000004 10.325400 5.172110 3.420050 -2.192480 -6.469440 -0.000000 -169.759000 0.956891 10.443400 39.081100 -0.000007 -0.000012 0.023169 -0.040266 29.915700 40.985400 -0.000006 -0.000013 0.275591 19.337600 -46.818200 11.754300 -0.000000 0.000003 -0.295751 -0.784527 -51.088400 -2.192510 6.469440 -0.000001 -172.450000 0.970650 148.874000 -39.081100 -0.002282 -0.040193 0.039875 -0.037590 44.242000 -40.985400 0.000008 0.000006 -3.942530 -4.589590 -74.594200 -11.754300 -0.000006 -0.000006 -0.004568 0.224892 -7.445440
